<svg id="Capa_1" enable-background="new 0 0 512 512" height="512" viewBox="0 0 512 512" width="512" xmlns="http://www.w3.org/2000/svg"><path d="m136 160v342h240c0-32.472 0-309.351 0-342z" fill="#ffd27b"/><path d="m462 286h40v120h-40z" fill="#e6ffff"/><path d="m462 286v120c-16.853 0-68.915 0-86 0v-120z" fill="#ff7cb9"/><path d="m376 406h40v96h-40z" fill="#e6ffff"/><path d="m256 10 120 150h-240z" fill="#ff7cb9"/><path d="m196 406h120v96h-120z" fill="#575f64"/><circle cx="256" cy="286" fill="#e6ffff" r="60"/><path d="m96 406h40v96h-40z" fill="#e6ffff"/><path d="m136 286v120c-17.078 0-69.147 0-86 0v-120z" fill="#ff7cb9"/><path d="m10 286h40v120h-40z" fill="#e6ffff"/><path d="m256 356c38.598 0 70-31.402 70-70s-31.402-70-70-70-70 31.402-70 70 31.402 70 70 70zm0-120c27.57 0 50 22.43 50 50s-22.43 50-50 50-50-22.43-50-50 22.43-50 50-50z"/><path d="m10 492c-5.523 0-10 4.477-10 10s4.477 10 10 10h492c5.523 0 10-4.477 10-10s-4.477-10-10-10h-76v-76h66v20c0 5.523 4.477 10 10 10s10-4.477 10-10v-180c0-5.523-4.477-10-10-10s-10 4.477-10 10v20h-106v-106h20c5.523 0 10-4.477 10-10s-4.477-10-10-10h-25.194l-116.997-146.247c-1.898-2.372-4.771-3.753-7.809-3.753s-5.911 1.381-7.809 3.753l-116.997 146.247h-25.194c-5.523 0-10 4.477-10 10s4.477 10 10 10h20v106h-106v-20c0-5.523-4.477-10-10-10s-10 4.477-10 10v180c0 5.523 4.477 10 10 10s10-4.477 10-10v-20h66v76zm462-196h20v100h-20zm-86 0h66v100h-66zm0 120h20v76h-20zm-80 76h-100v-76h100zm-160-322h65c5.523 0 10-4.477 10-10s-4.477-10-10-10h-54.193l99.193-123.992 99.194 123.992h-54.194c-5.523 0-10 4.477-10 10s4.477 10 10 10h65v322h-40v-86c0-5.523-4.477-10-10-10h-120c-5.523 0-10 4.477-10 10v86h-40zm-20 322h-20v-76h20zm-86-96h-20v-100h20zm20 0v-100h66v100z"/><circle cx="256" cy="160" r="10"/></svg>